<svg xmlns="http://www.w3.org/2000/svg" xmlns:xlink="http://www.w3.org/1999/xlink" width="227" zoomAndPan="magnify" viewBox="0 0 170.25 42.75" height="57" preserveAspectRatio="xMidYMid meet" version="1.0"><defs><g/></defs><g fill="#000000" fill-opacity="1"><g transform="translate(7.527018, 26.00906)"><g><path d="M 6.671875 -3.390625 C 6.671875 -2.015625 6.394531 -0.832031 5.84375 0.15625 C 5.300781 1.15625 4.535156 1.925781 3.546875 2.46875 C 2.554688 3.007812 1.410156 3.300781 0.109375 3.34375 L 0.109375 0.265625 C 2.359375 0.148438 3.484375 -1.085938 3.484375 -3.453125 L 3.484375 -16.109375 L 6.671875 -16.109375 Z M 6.671875 -3.390625 "/></g></g></g><g fill="#000000" fill-opacity="1"><g transform="translate(16.283107, 26.00906)"><g><path d="M 13.0625 -16.109375 L 13.0625 -13.046875 L 5.25 -13.046875 L 5.25 -9.609375 L 12.171875 -9.609375 L 12.171875 -6.546875 L 5.25 -6.546875 L 5.25 -3.0625 L 13.375 -3.0625 L 13.375 0 L 2.078125 0 L 2.078125 -16.109375 Z M 13.0625 -16.109375 "/></g></g></g><g fill="#000000" fill-opacity="1"><g transform="translate(30.861987, 26.00906)"><g><path d="M 10.6875 -12.21875 C 9.28125 -12.988281 8.0625 -13.375 7.03125 -13.375 C 6.320312 -13.375 5.773438 -13.234375 5.390625 -12.953125 C 5.003906 -12.679688 4.8125 -12.269531 4.8125 -11.71875 C 4.8125 -11.207031 5.09375 -10.753906 5.65625 -10.359375 C 6.21875 -9.972656 6.96875 -9.609375 7.90625 -9.265625 C 8.664062 -8.984375 9.3125 -8.660156 9.84375 -8.296875 C 10.382812 -7.941406 10.832031 -7.453125 11.1875 -6.828125 C 11.550781 -6.203125 11.734375 -5.40625 11.734375 -4.4375 C 11.734375 -3.613281 11.515625 -2.847656 11.078125 -2.140625 C 10.648438 -1.429688 10.019531 -0.867188 9.1875 -0.453125 C 8.363281 -0.0351562 7.375 0.171875 6.21875 0.171875 C 5.25 0.171875 4.289062 0.03125 3.34375 -0.25 C 2.394531 -0.53125 1.515625 -0.960938 0.703125 -1.546875 L 2.09375 -4.03125 C 2.65625 -3.625 3.289062 -3.285156 4 -3.015625 C 4.71875 -2.753906 5.363281 -2.625 5.9375 -2.625 C 6.601562 -2.625 7.179688 -2.765625 7.671875 -3.046875 C 8.171875 -3.335938 8.421875 -3.800781 8.421875 -4.4375 C 8.421875 -5.269531 7.640625 -5.992188 6.078125 -6.609375 C 5.160156 -6.972656 4.394531 -7.320312 3.78125 -7.65625 C 3.175781 -8 2.648438 -8.484375 2.203125 -9.109375 C 1.753906 -9.734375 1.53125 -10.519531 1.53125 -11.46875 C 1.53125 -12.851562 1.984375 -13.96875 2.890625 -14.8125 C 3.804688 -15.664062 5.023438 -16.128906 6.546875 -16.203125 C 7.742188 -16.203125 8.742188 -16.066406 9.546875 -15.796875 C 10.347656 -15.523438 11.128906 -15.140625 11.890625 -14.640625 Z M 10.6875 -12.21875 "/></g></g></g><g fill="#000000" fill-opacity="1"><g transform="translate(43.623979, 26.00906)"><g><path d="M 10.6875 -12.21875 C 9.28125 -12.988281 8.0625 -13.375 7.03125 -13.375 C 6.320312 -13.375 5.773438 -13.234375 5.390625 -12.953125 C 5.003906 -12.679688 4.8125 -12.269531 4.8125 -11.71875 C 4.8125 -11.207031 5.09375 -10.753906 5.65625 -10.359375 C 6.21875 -9.972656 6.96875 -9.609375 7.90625 -9.265625 C 8.664062 -8.984375 9.3125 -8.660156 9.84375 -8.296875 C 10.382812 -7.941406 10.832031 -7.453125 11.1875 -6.828125 C 11.550781 -6.203125 11.734375 -5.40625 11.734375 -4.4375 C 11.734375 -3.613281 11.515625 -2.847656 11.078125 -2.140625 C 10.648438 -1.429688 10.019531 -0.867188 9.1875 -0.453125 C 8.363281 -0.0351562 7.375 0.171875 6.21875 0.171875 C 5.25 0.171875 4.289062 0.03125 3.34375 -0.25 C 2.394531 -0.53125 1.515625 -0.960938 0.703125 -1.546875 L 2.09375 -4.03125 C 2.65625 -3.625 3.289062 -3.285156 4 -3.015625 C 4.71875 -2.753906 5.363281 -2.625 5.9375 -2.625 C 6.601562 -2.625 7.179688 -2.765625 7.671875 -3.046875 C 8.171875 -3.335938 8.421875 -3.800781 8.421875 -4.4375 C 8.421875 -5.269531 7.640625 -5.992188 6.078125 -6.609375 C 5.160156 -6.972656 4.394531 -7.320312 3.78125 -7.65625 C 3.175781 -8 2.648438 -8.484375 2.203125 -9.109375 C 1.753906 -9.734375 1.53125 -10.519531 1.53125 -11.46875 C 1.53125 -12.851562 1.984375 -13.96875 2.890625 -14.8125 C 3.804688 -15.664062 5.023438 -16.128906 6.546875 -16.203125 C 7.742188 -16.203125 8.742188 -16.066406 9.546875 -15.796875 C 10.347656 -15.523438 11.128906 -15.140625 11.890625 -14.640625 Z M 10.6875 -12.21875 "/></g></g></g><g fill="#000000" fill-opacity="1"><g transform="translate(56.385971, 26.00906)"><g><path d="M 5.25 -16.109375 L 5.25 0 L 2.078125 0 L 2.078125 -16.109375 Z M 5.25 -16.109375 "/></g></g></g><g fill="#000000" fill-opacity="1"><g transform="translate(63.719197, 26.00906)"><g><path d="M 13.0625 -16.109375 L 13.0625 -13.046875 L 5.25 -13.046875 L 5.25 -9.609375 L 12.171875 -9.609375 L 12.171875 -6.546875 L 5.25 -6.546875 L 5.25 -3.0625 L 13.375 -3.0625 L 13.375 0 L 2.078125 0 L 2.078125 -16.109375 Z M 13.0625 -16.109375 "/></g></g></g><g fill="#000000" fill-opacity="1"><g transform="translate(78.298077, 26.00906)"><g><path d="M 0.4375 -12.84375 C 0.71875 -13.113281 0.953125 -13.46875 1.140625 -13.90625 C 1.328125 -14.351562 1.421875 -14.796875 1.421875 -15.234375 C 1.421875 -15.347656 1.40625 -15.507812 1.375 -15.71875 L 3.71875 -15.875 C 3.75 -15.695312 3.765625 -15.554688 3.765625 -15.453125 C 3.765625 -14.859375 3.585938 -14.238281 3.234375 -13.59375 C 2.890625 -12.945312 2.484375 -12.492188 2.015625 -12.234375 Z M 0.4375 -12.84375 "/></g></g></g><g fill="#000000" fill-opacity="1"><g transform="translate(82.610447, 26.00906)"><g><path d="M 4.6875 0.203125 C 3.894531 0.203125 3.15625 0.0625 2.46875 -0.21875 C 1.78125 -0.5 1.210938 -0.882812 0.765625 -1.375 L 2.03125 -3.0625 C 2.882812 -2.269531 3.679688 -1.875 4.421875 -1.875 C 4.816406 -1.875 5.132812 -1.9375 5.375 -2.0625 C 5.613281 -2.1875 5.734375 -2.375 5.734375 -2.625 C 5.734375 -2.914062 5.59375 -3.140625 5.3125 -3.296875 C 5.039062 -3.453125 4.734375 -3.578125 4.390625 -3.671875 C 4.046875 -3.773438 3.816406 -3.84375 3.703125 -3.875 C 2.867188 -4.132812 2.242188 -4.523438 1.828125 -5.046875 C 1.421875 -5.566406 1.21875 -6.160156 1.21875 -6.828125 C 1.21875 -7.335938 1.351562 -7.835938 1.625 -8.328125 C 1.894531 -8.816406 2.316406 -9.21875 2.890625 -9.53125 C 3.460938 -9.84375 4.171875 -10 5.015625 -10 C 5.796875 -10 6.460938 -9.914062 7.015625 -9.75 C 7.578125 -9.59375 8.113281 -9.332031 8.625 -8.96875 L 7.46875 -7.1875 C 7.175781 -7.414062 6.847656 -7.601562 6.484375 -7.75 C 6.128906 -7.90625 5.804688 -7.984375 5.515625 -7.984375 C 5.160156 -7.984375 4.875 -7.910156 4.65625 -7.765625 C 4.4375 -7.617188 4.328125 -7.445312 4.328125 -7.25 C 4.316406 -6.9375 4.445312 -6.703125 4.71875 -6.546875 C 4.988281 -6.398438 5.40625 -6.242188 5.96875 -6.078125 C 6.0625 -6.054688 6.15625 -6.03125 6.25 -6 C 6.34375 -5.96875 6.441406 -5.9375 6.546875 -5.90625 C 8.046875 -5.414062 8.796875 -4.515625 8.796875 -3.203125 C 8.796875 -2.585938 8.640625 -2.023438 8.328125 -1.515625 C 8.023438 -1.003906 7.5625 -0.585938 6.9375 -0.265625 C 6.320312 0.046875 5.570312 0.203125 4.6875 0.203125 Z M 4.6875 0.203125 "/></g></g></g><g fill="#000000" fill-opacity="1"><g transform="translate(92.395374, 26.00906)"><g/></g></g><g fill="#000000" fill-opacity="1"><g transform="translate(99.509691, 26.00906)"><g><path d="M 10.6875 -12.21875 C 9.28125 -12.988281 8.0625 -13.375 7.03125 -13.375 C 6.320312 -13.375 5.773438 -13.234375 5.390625 -12.953125 C 5.003906 -12.679688 4.8125 -12.269531 4.8125 -11.71875 C 4.8125 -11.207031 5.09375 -10.753906 5.65625 -10.359375 C 6.21875 -9.972656 6.96875 -9.609375 7.90625 -9.265625 C 8.664062 -8.984375 9.3125 -8.660156 9.84375 -8.296875 C 10.382812 -7.941406 10.832031 -7.453125 11.1875 -6.828125 C 11.550781 -6.203125 11.734375 -5.40625 11.734375 -4.4375 C 11.734375 -3.613281 11.515625 -2.847656 11.078125 -2.140625 C 10.648438 -1.429688 10.019531 -0.867188 9.1875 -0.453125 C 8.363281 -0.0351562 7.375 0.171875 6.21875 0.171875 C 5.25 0.171875 4.289062 0.03125 3.34375 -0.25 C 2.394531 -0.53125 1.515625 -0.960938 0.703125 -1.546875 L 2.09375 -4.03125 C 2.65625 -3.625 3.289062 -3.285156 4 -3.015625 C 4.71875 -2.753906 5.363281 -2.625 5.9375 -2.625 C 6.601562 -2.625 7.179688 -2.765625 7.671875 -3.046875 C 8.171875 -3.335938 8.421875 -3.800781 8.421875 -4.4375 C 8.421875 -5.269531 7.640625 -5.992188 6.078125 -6.609375 C 5.160156 -6.972656 4.394531 -7.320312 3.78125 -7.65625 C 3.175781 -8 2.648438 -8.484375 2.203125 -9.109375 C 1.753906 -9.734375 1.53125 -10.519531 1.53125 -11.46875 C 1.53125 -12.851562 1.984375 -13.96875 2.890625 -14.8125 C 3.804688 -15.664062 5.023438 -16.128906 6.546875 -16.203125 C 7.742188 -16.203125 8.742188 -16.066406 9.546875 -15.796875 C 10.347656 -15.523438 11.128906 -15.140625 11.890625 -14.640625 Z M 10.6875 -12.21875 "/></g></g></g><g fill="#000000" fill-opacity="1"><g transform="translate(112.271683, 26.00906)"><g><path d="M 8.1875 -10.046875 C 9.070312 -10.046875 9.863281 -9.832031 10.5625 -9.40625 C 11.269531 -8.988281 11.820312 -8.382812 12.21875 -7.59375 C 12.625 -6.800781 12.828125 -5.875 12.828125 -4.8125 C 12.828125 -3.757812 12.601562 -2.847656 12.15625 -2.078125 C 11.71875 -1.316406 11.097656 -0.734375 10.296875 -0.328125 C 9.503906 0.0664062 8.597656 0.265625 7.578125 0.265625 C 7.023438 0.265625 6.476562 0.164062 5.9375 -0.03125 C 5.40625 -0.226562 4.96875 -0.507812 4.625 -0.875 L 4.625 4.59375 L 1.578125 4.59375 L 1.578125 -9.78125 L 4.203125 -9.78125 L 4.46875 -8.640625 C 5.632812 -9.578125 6.875 -10.046875 8.1875 -10.046875 Z M 6.96875 -2.140625 C 7.71875 -2.140625 8.363281 -2.390625 8.90625 -2.890625 C 9.445312 -3.390625 9.71875 -4.015625 9.71875 -4.765625 C 9.71875 -5.554688 9.472656 -6.203125 8.984375 -6.703125 C 8.492188 -7.210938 7.894531 -7.46875 7.1875 -7.46875 C 6.582031 -7.46875 6.070312 -7.347656 5.65625 -7.109375 C 5.238281 -6.867188 4.898438 -6.503906 4.640625 -6.015625 L 4.640625 -3.671875 C 4.796875 -3.210938 5.082031 -2.84375 5.5 -2.5625 C 5.914062 -2.28125 6.40625 -2.140625 6.96875 -2.140625 Z M 6.96875 -2.140625 "/></g></g></g><g fill="#000000" fill-opacity="1"><g transform="translate(125.931174, 26.00906)"><g><path d="M 11.859375 -9.5625 L 11.859375 0 L 8.796875 0 L 8.796875 -1.1875 C 7.878906 -0.21875 6.816406 0.265625 5.609375 0.265625 C 4.191406 0.265625 3.039062 -0.15625 2.15625 -1 C 1.269531 -1.851562 0.828125 -3.109375 0.828125 -4.765625 C 0.828125 -5.816406 1.039062 -6.738281 1.46875 -7.53125 C 1.90625 -8.332031 2.476562 -8.953125 3.1875 -9.390625 C 3.90625 -9.828125 4.675781 -10.046875 5.5 -10.046875 C 6.34375 -10.046875 7.007812 -9.914062 7.5 -9.65625 C 8 -9.40625 8.441406 -9.046875 8.828125 -8.578125 L 9.015625 -9.5625 Z M 6.484375 -2.234375 C 7.546875 -2.234375 8.316406 -2.710938 8.796875 -3.671875 L 8.796875 -6.015625 C 8.617188 -6.484375 8.316406 -6.851562 7.890625 -7.125 C 7.460938 -7.40625 6.957031 -7.546875 6.375 -7.546875 C 5.695312 -7.546875 5.117188 -7.296875 4.640625 -6.796875 C 4.171875 -6.304688 3.9375 -5.679688 3.9375 -4.921875 C 3.9375 -4.429688 4.050781 -3.976562 4.28125 -3.5625 C 4.519531 -3.144531 4.832031 -2.816406 5.21875 -2.578125 C 5.601562 -2.347656 6.023438 -2.234375 6.484375 -2.234375 Z M 6.484375 -2.234375 "/></g></g></g><g fill="#000000" fill-opacity="1"><g transform="translate(139.371769, 26.00906)"><g><path d="M 9.703125 -0.859375 C 9.273438 -0.515625 8.742188 -0.238281 8.109375 -0.03125 C 7.472656 0.164062 6.847656 0.265625 6.234375 0.265625 C 4.578125 0.265625 3.257812 -0.179688 2.28125 -1.078125 C 1.3125 -1.984375 0.828125 -3.222656 0.828125 -4.796875 C 0.828125 -5.816406 1.0625 -6.707031 1.53125 -7.46875 C 2.007812 -8.238281 2.632812 -8.820312 3.40625 -9.21875 C 4.1875 -9.625 5.019531 -9.828125 5.90625 -9.828125 C 7.5 -9.828125 8.789062 -9.40625 9.78125 -8.5625 L 8.296875 -6.59375 C 7.671875 -7.082031 6.96875 -7.328125 6.1875 -7.328125 C 5.550781 -7.328125 5.007812 -7.085938 4.5625 -6.609375 C 4.113281 -6.128906 3.890625 -5.523438 3.890625 -4.796875 C 3.890625 -4.066406 4.128906 -3.457031 4.609375 -2.96875 C 5.097656 -2.476562 5.726562 -2.234375 6.5 -2.234375 C 7.175781 -2.234375 7.734375 -2.414062 8.171875 -2.78125 Z M 9.703125 -0.859375 "/></g></g></g><g fill="#000000" fill-opacity="1"><g transform="translate(149.857177, 26.00906)"><g><path d="M 6.34375 -2.34375 C 6.957031 -2.34375 7.59375 -2.554688 8.25 -2.984375 L 9.609375 -0.703125 C 9.085938 -0.410156 8.535156 -0.175781 7.953125 0 C 7.367188 0.175781 6.8125 0.265625 6.28125 0.265625 C 5.144531 0.265625 4.160156 0.0507812 3.328125 -0.375 C 2.503906 -0.8125 1.878906 -1.421875 1.453125 -2.203125 C 1.035156 -2.984375 0.828125 -3.875 0.828125 -4.875 C 0.828125 -5.8125 1.070312 -6.671875 1.5625 -7.453125 C 2.050781 -8.242188 2.71875 -8.867188 3.5625 -9.328125 C 4.414062 -9.796875 5.34375 -10.03125 6.34375 -10.03125 C 7.71875 -10.03125 8.847656 -9.628906 9.734375 -8.828125 C 10.617188 -8.023438 11.191406 -6.878906 11.453125 -5.390625 L 4.4375 -3.15625 C 4.90625 -2.613281 5.539062 -2.34375 6.34375 -2.34375 Z M 6.109375 -7.640625 C 5.421875 -7.640625 4.875 -7.40625 4.46875 -6.9375 C 4.0625 -6.46875 3.859375 -5.84375 3.859375 -5.0625 L 3.859375 -4.859375 L 8.0625 -6.28125 C 7.75 -7.1875 7.097656 -7.640625 6.109375 -7.640625 Z M 6.109375 -7.640625 "/></g></g></g></svg>