<svg xmlns="http://www.w3.org/2000/svg" xmlns:xlink="http://www.w3.org/1999/xlink" width="227" zoomAndPan="magnify" viewBox="0 0 170.25 42.75" height="57" preserveAspectRatio="xMidYMid meet" version="1.0"><defs><g/></defs><g fill="#000000" fill-opacity="1"><g transform="translate(4.34934, 27.101356)"><g><path d="M 6.234375 -3.125 C 6.234375 -1.757812 5.96875 -0.582031 5.4375 0.40625 C 4.914062 1.40625 4.1875 2.171875 3.25 2.703125 C 2.320312 3.234375 1.265625 3.519531 0.078125 3.5625 L 0.078125 1.3125 C 1.253906 1.25 2.1875 0.835938 2.875 0.078125 C 3.5625 -0.671875 3.90625 -1.765625 3.90625 -3.203125 L 3.90625 -17.25 L 6.234375 -17.25 Z M 6.234375 -3.125 "/></g></g></g><g fill="#000000" fill-opacity="1"><g transform="translate(13.058427, 27.101356)"><g><path d="M 13.6875 -17.25 L 13.6875 -15.03125 L 4.796875 -15.03125 L 4.796875 -9.78125 L 12.734375 -9.78125 L 12.734375 -7.5625 L 4.796875 -7.5625 L 4.796875 -2.25 L 14.03125 -2.25 L 14.03125 0 L 2.484375 0 L 2.484375 -17.25 Z M 13.6875 -17.25 "/></g></g></g><g fill="#000000" fill-opacity="1"><g transform="translate(28.639341, 27.101356)"><g><path d="M 11.40625 -14.171875 C 10.78125 -14.503906 10.117188 -14.773438 9.421875 -14.984375 C 8.722656 -15.191406 8.0625 -15.296875 7.4375 -15.296875 C 6.5 -15.296875 5.753906 -15.082031 5.203125 -14.65625 C 4.660156 -14.238281 4.390625 -13.664062 4.390625 -12.9375 C 4.390625 -12.21875 4.710938 -11.628906 5.359375 -11.171875 C 6.003906 -10.722656 6.921875 -10.273438 8.109375 -9.828125 C 9.003906 -9.515625 9.753906 -9.171875 10.359375 -8.796875 C 10.972656 -8.421875 11.484375 -7.898438 11.890625 -7.234375 C 12.296875 -6.578125 12.5 -5.738281 12.5 -4.71875 C 12.5 -3.800781 12.269531 -2.96875 11.8125 -2.21875 C 11.351562 -1.46875 10.695312 -0.878906 9.84375 -0.453125 C 8.988281 -0.0234375 7.988281 0.1875 6.84375 0.1875 C 5.78125 0.1875 4.753906 0.0195312 3.765625 -0.3125 C 2.785156 -0.65625 1.921875 -1.09375 1.171875 -1.625 L 2.1875 -3.453125 C 2.78125 -3.015625 3.488281 -2.640625 4.3125 -2.328125 C 5.144531 -2.015625 5.921875 -1.859375 6.640625 -1.859375 C 7.554688 -1.859375 8.359375 -2.097656 9.046875 -2.578125 C 9.742188 -3.054688 10.09375 -3.765625 10.09375 -4.703125 C 10.09375 -5.492188 9.800781 -6.125 9.21875 -6.59375 C 8.632812 -7.0625 7.820312 -7.503906 6.78125 -7.921875 C 5.8125 -8.285156 5.003906 -8.640625 4.359375 -8.984375 C 3.710938 -9.335938 3.15625 -9.820312 2.6875 -10.4375 C 2.226562 -11.050781 2 -11.816406 2 -12.734375 C 2 -14.085938 2.472656 -15.179688 3.421875 -16.015625 C 4.367188 -16.859375 5.597656 -17.300781 7.109375 -17.34375 C 8.972656 -17.34375 10.695312 -16.882812 12.28125 -15.96875 Z M 11.40625 -14.171875 "/></g></g></g><g fill="#000000" fill-opacity="1"><g transform="translate(42.526161, 27.101356)"><g><path d="M 11.40625 -14.171875 C 10.78125 -14.503906 10.117188 -14.773438 9.421875 -14.984375 C 8.722656 -15.191406 8.0625 -15.296875 7.4375 -15.296875 C 6.5 -15.296875 5.753906 -15.082031 5.203125 -14.65625 C 4.660156 -14.238281 4.390625 -13.664062 4.390625 -12.9375 C 4.390625 -12.21875 4.710938 -11.628906 5.359375 -11.171875 C 6.003906 -10.722656 6.921875 -10.273438 8.109375 -9.828125 C 9.003906 -9.515625 9.753906 -9.171875 10.359375 -8.796875 C 10.972656 -8.421875 11.484375 -7.898438 11.890625 -7.234375 C 12.296875 -6.578125 12.5 -5.738281 12.5 -4.71875 C 12.5 -3.800781 12.269531 -2.96875 11.8125 -2.21875 C 11.351562 -1.46875 10.695312 -0.878906 9.84375 -0.453125 C 8.988281 -0.0234375 7.988281 0.1875 6.84375 0.1875 C 5.78125 0.1875 4.753906 0.0195312 3.765625 -0.3125 C 2.785156 -0.65625 1.921875 -1.09375 1.171875 -1.625 L 2.1875 -3.453125 C 2.78125 -3.015625 3.488281 -2.640625 4.3125 -2.328125 C 5.144531 -2.015625 5.921875 -1.859375 6.640625 -1.859375 C 7.554688 -1.859375 8.359375 -2.097656 9.046875 -2.578125 C 9.742188 -3.054688 10.09375 -3.765625 10.09375 -4.703125 C 10.09375 -5.492188 9.800781 -6.125 9.21875 -6.59375 C 8.632812 -7.0625 7.820312 -7.503906 6.78125 -7.921875 C 5.8125 -8.285156 5.003906 -8.640625 4.359375 -8.984375 C 3.710938 -9.335938 3.15625 -9.820312 2.6875 -10.4375 C 2.226562 -11.050781 2 -11.816406 2 -12.734375 C 2 -14.085938 2.472656 -15.179688 3.421875 -16.015625 C 4.367188 -16.859375 5.597656 -17.300781 7.109375 -17.34375 C 8.972656 -17.34375 10.695312 -16.882812 12.28125 -15.96875 Z M 11.40625 -14.171875 "/></g></g></g><g fill="#000000" fill-opacity="1"><g transform="translate(56.41298, 27.101356)"><g><path d="M 4.796875 -17.25 L 4.796875 0 L 2.484375 0 L 2.484375 -17.25 Z M 4.796875 -17.25 "/></g></g></g><g fill="#000000" fill-opacity="1"><g transform="translate(63.69044, 27.101356)"><g><path d="M 13.6875 -17.25 L 13.6875 -15.03125 L 4.796875 -15.03125 L 4.796875 -9.78125 L 12.734375 -9.78125 L 12.734375 -7.5625 L 4.796875 -7.5625 L 4.796875 -2.25 L 14.03125 -2.25 L 14.03125 0 L 2.484375 0 L 2.484375 -17.25 Z M 13.6875 -17.25 "/></g></g></g><g fill="#000000" fill-opacity="1"><g transform="translate(79.271355, 27.101356)"><g><path d="M 0.828125 -14.03125 C 1.117188 -14.3125 1.351562 -14.671875 1.53125 -15.109375 C 1.71875 -15.546875 1.8125 -16 1.8125 -16.46875 C 1.8125 -16.570312 1.796875 -16.753906 1.765625 -17.015625 L 3.5625 -17.171875 C 3.59375 -16.953125 3.609375 -16.78125 3.609375 -16.65625 C 3.609375 -16.050781 3.445312 -15.445312 3.125 -14.84375 C 2.800781 -14.238281 2.410156 -13.773438 1.953125 -13.453125 Z M 0.828125 -14.03125 "/></g></g></g><g fill="#000000" fill-opacity="1"><g transform="translate(83.685551, 27.101356)"><g><path d="M 4.71875 0.21875 C 3.988281 0.21875 3.289062 0.09375 2.625 -0.15625 C 1.96875 -0.414062 1.4375 -0.789062 1.03125 -1.28125 L 1.984375 -2.578125 C 2.378906 -2.191406 2.796875 -1.894531 3.234375 -1.6875 C 3.671875 -1.488281 4.101562 -1.390625 4.53125 -1.390625 C 5.0625 -1.390625 5.492188 -1.488281 5.828125 -1.6875 C 6.160156 -1.894531 6.328125 -2.210938 6.328125 -2.640625 C 6.328125 -2.984375 6.222656 -3.253906 6.015625 -3.453125 C 5.804688 -3.660156 5.570312 -3.8125 5.3125 -3.90625 C 5.050781 -4.007812 4.609375 -4.15625 3.984375 -4.34375 C 2.296875 -4.882812 1.453125 -5.847656 1.453125 -7.234375 C 1.453125 -8.054688 1.757812 -8.757812 2.375 -9.34375 C 2.988281 -9.9375 3.84375 -10.234375 4.9375 -10.234375 C 5.632812 -10.234375 6.253906 -10.144531 6.796875 -9.96875 C 7.335938 -9.789062 7.835938 -9.515625 8.296875 -9.140625 L 7.421875 -7.78125 C 7.160156 -8.050781 6.835938 -8.265625 6.453125 -8.421875 C 6.066406 -8.578125 5.695312 -8.664062 5.34375 -8.6875 C 4.894531 -8.6875 4.507812 -8.578125 4.1875 -8.359375 C 3.875 -8.148438 3.71875 -7.859375 3.71875 -7.484375 C 3.71875 -7.179688 3.820312 -6.929688 4.03125 -6.734375 C 4.238281 -6.535156 4.453125 -6.390625 4.671875 -6.296875 C 4.898438 -6.210938 5.335938 -6.070312 5.984375 -5.875 C 6.796875 -5.601562 7.425781 -5.25 7.875 -4.8125 C 8.332031 -4.382812 8.5625 -3.804688 8.5625 -3.078125 C 8.5625 -2.117188 8.226562 -1.328125 7.5625 -0.703125 C 6.894531 -0.0859375 5.945312 0.21875 4.71875 0.21875 Z M 4.71875 0.21875 "/></g></g></g><g fill="#000000" fill-opacity="1"><g transform="translate(93.420643, 27.101356)"><g/></g></g><g fill="#000000" fill-opacity="1"><g transform="translate(100.96056, 27.101356)"><g><path d="M 11.40625 -14.171875 C 10.78125 -14.503906 10.117188 -14.773438 9.421875 -14.984375 C 8.722656 -15.191406 8.0625 -15.296875 7.4375 -15.296875 C 6.5 -15.296875 5.753906 -15.082031 5.203125 -14.65625 C 4.660156 -14.238281 4.390625 -13.664062 4.390625 -12.9375 C 4.390625 -12.21875 4.710938 -11.628906 5.359375 -11.171875 C 6.003906 -10.722656 6.921875 -10.273438 8.109375 -9.828125 C 9.003906 -9.515625 9.753906 -9.171875 10.359375 -8.796875 C 10.972656 -8.421875 11.484375 -7.898438 11.890625 -7.234375 C 12.296875 -6.578125 12.5 -5.738281 12.5 -4.71875 C 12.5 -3.800781 12.269531 -2.96875 11.8125 -2.21875 C 11.351562 -1.46875 10.695312 -0.878906 9.84375 -0.453125 C 8.988281 -0.0234375 7.988281 0.1875 6.84375 0.1875 C 5.78125 0.1875 4.753906 0.0195312 3.765625 -0.3125 C 2.785156 -0.65625 1.921875 -1.09375 1.171875 -1.625 L 2.1875 -3.453125 C 2.78125 -3.015625 3.488281 -2.640625 4.3125 -2.328125 C 5.144531 -2.015625 5.921875 -1.859375 6.640625 -1.859375 C 7.554688 -1.859375 8.359375 -2.097656 9.046875 -2.578125 C 9.742188 -3.054688 10.09375 -3.765625 10.09375 -4.703125 C 10.09375 -5.492188 9.800781 -6.125 9.21875 -6.59375 C 8.632812 -7.0625 7.820312 -7.503906 6.78125 -7.921875 C 5.8125 -8.285156 5.003906 -8.640625 4.359375 -8.984375 C 3.710938 -9.335938 3.15625 -9.820312 2.6875 -10.4375 C 2.226562 -11.050781 2 -11.816406 2 -12.734375 C 2 -14.085938 2.472656 -15.179688 3.421875 -16.015625 C 4.367188 -16.859375 5.597656 -17.300781 7.109375 -17.34375 C 8.972656 -17.34375 10.695312 -16.882812 12.28125 -15.96875 Z M 11.40625 -14.171875 "/></g></g></g><g fill="#000000" fill-opacity="1"><g transform="translate(114.84738, 27.101356)"><g><path d="M 8.1875 -10.28125 C 9.101562 -10.28125 9.9375 -10.054688 10.6875 -9.609375 C 11.4375 -9.171875 12.023438 -8.546875 12.453125 -7.734375 C 12.878906 -6.929688 13.09375 -6.007812 13.09375 -4.96875 C 13.09375 -3.925781 12.863281 -3.007812 12.40625 -2.21875 C 11.945312 -1.4375 11.3125 -0.832031 10.5 -0.40625 C 9.6875 0.0195312 8.78125 0.234375 7.78125 0.234375 C 7.0625 0.234375 6.375 0.0820312 5.71875 -0.21875 C 5.070312 -0.53125 4.550781 -0.953125 4.15625 -1.484375 L 4.15625 4.75 L 1.9375 4.75 L 1.9375 -10.046875 L 3.859375 -10.046875 L 4.0625 -8.375 C 4.5625 -8.945312 5.164062 -9.40625 5.875 -9.75 C 6.582031 -10.101562 7.351562 -10.28125 8.1875 -10.28125 Z M 7.34375 -1.546875 C 7.96875 -1.546875 8.546875 -1.691406 9.078125 -1.984375 C 9.609375 -2.285156 10.03125 -2.691406 10.34375 -3.203125 C 10.664062 -3.722656 10.828125 -4.300781 10.828125 -4.9375 C 10.828125 -5.59375 10.679688 -6.179688 10.390625 -6.703125 C 10.097656 -7.222656 9.695312 -7.632812 9.1875 -7.9375 C 8.675781 -8.25 8.109375 -8.40625 7.484375 -8.40625 C 6.648438 -8.40625 5.929688 -8.164062 5.328125 -7.6875 C 4.734375 -7.21875 4.34375 -6.585938 4.15625 -5.796875 L 4.15625 -4.15625 C 4.28125 -3.382812 4.640625 -2.753906 5.234375 -2.265625 C 5.828125 -1.785156 6.53125 -1.546875 7.34375 -1.546875 Z M 7.34375 -1.546875 "/></g></g></g><g fill="#000000" fill-opacity="1"><g transform="translate(128.996668, 27.101356)"><g><path d="M 12.078125 -9.875 L 12.078125 0 L 9.859375 0 L 9.859375 -1.625 C 9.503906 -1.164062 8.992188 -0.738281 8.328125 -0.34375 C 7.660156 0.0390625 6.90625 0.234375 6.0625 0.234375 C 5.125 0.234375 4.273438 0.03125 3.515625 -0.375 C 2.765625 -0.78125 2.171875 -1.367188 1.734375 -2.140625 C 1.296875 -2.921875 1.078125 -3.851562 1.078125 -4.9375 C 1.078125 -6.019531 1.300781 -6.960938 1.75 -7.765625 C 2.207031 -8.566406 2.820312 -9.1875 3.59375 -9.625 C 4.363281 -10.0625 5.21875 -10.28125 6.15625 -10.28125 C 7 -10.28125 7.726562 -10.097656 8.34375 -9.734375 C 8.96875 -9.367188 9.472656 -8.890625 9.859375 -8.296875 L 10.015625 -9.875 Z M 6.65625 -1.59375 C 7.46875 -1.59375 8.160156 -1.816406 8.734375 -2.265625 C 9.316406 -2.722656 9.691406 -3.34375 9.859375 -4.125 L 9.859375 -6.078125 C 9.660156 -6.785156 9.257812 -7.359375 8.65625 -7.796875 C 8.050781 -8.234375 7.359375 -8.453125 6.578125 -8.453125 C 5.992188 -8.453125 5.453125 -8.304688 4.953125 -8.015625 C 4.453125 -7.734375 4.050781 -7.332031 3.75 -6.8125 C 3.457031 -6.289062 3.3125 -5.707031 3.3125 -5.0625 C 3.3125 -4.425781 3.460938 -3.84375 3.765625 -3.3125 C 4.066406 -2.789062 4.472656 -2.375 4.984375 -2.0625 C 5.492188 -1.75 6.050781 -1.59375 6.65625 -1.59375 Z M 6.65625 -1.59375 "/></g></g></g><g fill="#000000" fill-opacity="1"><g transform="translate(143.002792, 27.101356)"><g><path d="M 9.953125 -0.9375 C 9.503906 -0.5625 8.972656 -0.269531 8.359375 -0.0625 C 7.742188 0.132812 7.117188 0.234375 6.484375 0.234375 C 5.421875 0.234375 4.476562 0.0195312 3.65625 -0.40625 C 2.84375 -0.832031 2.207031 -1.4375 1.75 -2.21875 C 1.300781 -3.007812 1.078125 -3.925781 1.078125 -4.96875 C 1.078125 -5.976562 1.3125 -6.878906 1.78125 -7.671875 C 2.257812 -8.460938 2.894531 -9.070312 3.6875 -9.5 C 4.488281 -9.925781 5.351562 -10.140625 6.28125 -10.140625 C 7.789062 -10.140625 9.035156 -9.726562 10.015625 -8.90625 L 8.90625 -7.4375 C 8.582031 -7.675781 8.210938 -7.878906 7.796875 -8.046875 C 7.390625 -8.210938 6.945312 -8.296875 6.46875 -8.296875 C 5.875 -8.296875 5.332031 -8.148438 4.84375 -7.859375 C 4.363281 -7.566406 3.984375 -7.164062 3.703125 -6.65625 C 3.429688 -6.144531 3.296875 -5.582031 3.296875 -4.96875 C 3.296875 -4.34375 3.441406 -3.773438 3.734375 -3.265625 C 4.023438 -2.753906 4.425781 -2.347656 4.9375 -2.046875 C 5.445312 -1.742188 6.03125 -1.59375 6.6875 -1.59375 C 7.488281 -1.59375 8.191406 -1.832031 8.796875 -2.3125 Z M 9.953125 -0.9375 "/></g></g></g><g fill="#000000" fill-opacity="1"><g transform="translate(153.883183, 27.101356)"><g><path d="M 6.5625 -1.671875 C 7.382812 -1.671875 8.1875 -1.957031 8.96875 -2.53125 L 10 -0.875 C 9.46875 -0.53125 8.894531 -0.257812 8.28125 -0.0625 C 7.675781 0.132812 7.085938 0.234375 6.515625 0.234375 C 5.421875 0.234375 4.460938 0.0078125 3.640625 -0.4375 C 2.816406 -0.894531 2.179688 -1.519531 1.734375 -2.3125 C 1.296875 -3.101562 1.078125 -4.003906 1.078125 -5.015625 C 1.078125 -5.984375 1.316406 -6.867188 1.796875 -7.671875 C 2.285156 -8.472656 2.953125 -9.109375 3.796875 -9.578125 C 4.640625 -10.046875 5.5625 -10.28125 6.5625 -10.28125 C 7.851562 -10.28125 8.929688 -9.898438 9.796875 -9.140625 C 10.660156 -8.390625 11.253906 -7.335938 11.578125 -5.984375 L 3.75 -3.25 C 4.03125 -2.75 4.410156 -2.359375 4.890625 -2.078125 C 5.378906 -1.804688 5.9375 -1.671875 6.5625 -1.671875 Z M 6.390625 -8.515625 C 5.484375 -8.515625 4.734375 -8.195312 4.140625 -7.5625 C 3.554688 -6.925781 3.265625 -6.113281 3.265625 -5.125 C 3.265625 -4.882812 3.273438 -4.703125 3.296875 -4.578125 L 9.046875 -6.703125 C 8.804688 -7.242188 8.46875 -7.679688 8.03125 -8.015625 C 7.59375 -8.347656 7.046875 -8.515625 6.390625 -8.515625 Z M 6.390625 -8.515625 "/></g></g></g></svg>