<svg xmlns="http://www.w3.org/2000/svg" xmlns:xlink="http://www.w3.org/1999/xlink" width="1080" zoomAndPan="magnify" viewBox="0 0 810 809.999993" height="1080" preserveAspectRatio="xMidYMid meet" version="1.0"><defs><g/></defs><g fill="#ff0000" fill-opacity="1"><g transform="translate(68.157422, 162.150012)"><g><path d="M 29.28125 -14.875 C 29.28125 -8.863281 28.078125 -3.664062 25.671875 0.71875 C 23.273438 5.101562 19.898438 8.476562 15.546875 10.84375 C 11.203125 13.21875 6.179688 14.5 0.484375 14.6875 L 0.484375 1.15625 C 10.335938 0.644531 15.265625 -4.796875 15.265625 -15.171875 L 15.265625 -70.65625 L 29.28125 -70.65625 Z M 29.28125 -14.875 "/></g></g></g><g fill="#ff0000" fill-opacity="1"><g transform="translate(106.55743, 162.150012)"><g><path d="M 57.3125 -70.65625 L 57.3125 -57.21875 L 23.046875 -57.21875 L 23.046875 -42.140625 L 53.375 -42.140625 L 53.375 -28.703125 L 23.046875 -28.703125 L 23.046875 -13.4375 L 58.65625 -13.4375 L 58.65625 0 L 9.125 0 L 9.125 -70.65625 Z M 57.3125 -70.65625 "/></g></g></g><g fill="#ff0000" fill-opacity="1"><g transform="translate(170.493438, 162.150012)"><g><path d="M 46.84375 -53.5625 C 40.695312 -56.957031 35.351562 -58.65625 30.8125 -58.65625 C 27.738281 -58.65625 25.351562 -58.046875 23.65625 -56.828125 C 21.96875 -55.617188 21.125 -53.796875 21.125 -51.359375 C 21.125 -49.117188 22.351562 -47.148438 24.8125 -45.453125 C 27.28125 -43.753906 30.5625 -42.140625 34.65625 -40.609375 C 37.976562 -39.390625 40.820312 -37.992188 43.1875 -36.421875 C 45.5625 -34.859375 47.53125 -32.703125 49.09375 -29.953125 C 50.664062 -27.203125 51.453125 -23.710938 51.453125 -19.484375 C 51.453125 -15.835938 50.507812 -12.460938 48.625 -9.359375 C 46.738281 -6.253906 43.96875 -3.789062 40.3125 -1.96875 C 36.664062 -0.144531 32.316406 0.765625 27.265625 0.765625 C 23.035156 0.765625 18.84375 0.144531 14.6875 -1.09375 C 10.53125 -2.34375 6.660156 -4.25 3.078125 -6.8125 L 9.21875 -17.65625 C 11.644531 -15.863281 14.425781 -14.390625 17.5625 -13.234375 C 20.695312 -12.085938 23.515625 -11.515625 26.015625 -11.515625 C 28.960938 -11.515625 31.519531 -12.140625 33.6875 -13.390625 C 35.863281 -14.640625 36.953125 -16.671875 36.953125 -19.484375 C 36.953125 -23.128906 33.53125 -26.296875 26.6875 -28.984375 C 22.65625 -30.585938 19.296875 -32.125 16.609375 -33.59375 C 13.921875 -35.070312 11.597656 -37.1875 9.640625 -39.9375 C 7.691406 -42.6875 6.71875 -46.140625 6.71875 -50.296875 C 6.71875 -56.378906 8.71875 -61.273438 12.71875 -64.984375 C 16.71875 -68.703125 22.046875 -70.722656 28.703125 -71.046875 C 33.953125 -71.046875 38.335938 -70.453125 41.859375 -69.265625 C 45.378906 -68.078125 48.800781 -66.394531 52.125 -64.21875 Z M 46.84375 -53.5625 "/></g></g></g><g fill="#ff0000" fill-opacity="1"><g transform="translate(226.461442, 162.150012)"><g><path d="M 46.84375 -53.5625 C 40.695312 -56.957031 35.351562 -58.65625 30.8125 -58.65625 C 27.738281 -58.65625 25.351562 -58.046875 23.65625 -56.828125 C 21.96875 -55.617188 21.125 -53.796875 21.125 -51.359375 C 21.125 -49.117188 22.351562 -47.148438 24.8125 -45.453125 C 27.28125 -43.753906 30.5625 -42.140625 34.65625 -40.609375 C 37.976562 -39.390625 40.820312 -37.992188 43.1875 -36.421875 C 45.5625 -34.859375 47.53125 -32.703125 49.09375 -29.953125 C 50.664062 -27.203125 51.453125 -23.710938 51.453125 -19.484375 C 51.453125 -15.835938 50.507812 -12.460938 48.625 -9.359375 C 46.738281 -6.253906 43.96875 -3.789062 40.3125 -1.96875 C 36.664062 -0.144531 32.316406 0.765625 27.265625 0.765625 C 23.035156 0.765625 18.84375 0.144531 14.6875 -1.09375 C 10.53125 -2.34375 6.660156 -4.25 3.078125 -6.8125 L 9.21875 -17.65625 C 11.644531 -15.863281 14.425781 -14.390625 17.5625 -13.234375 C 20.695312 -12.085938 23.515625 -11.515625 26.015625 -11.515625 C 28.960938 -11.515625 31.519531 -12.140625 33.6875 -13.390625 C 35.863281 -14.640625 36.953125 -16.671875 36.953125 -19.484375 C 36.953125 -23.128906 33.53125 -26.296875 26.6875 -28.984375 C 22.65625 -30.585938 19.296875 -32.125 16.609375 -33.59375 C 13.921875 -35.070312 11.597656 -37.1875 9.640625 -39.9375 C 7.691406 -42.6875 6.71875 -46.140625 6.71875 -50.296875 C 6.71875 -56.378906 8.71875 -61.273438 12.71875 -64.984375 C 16.71875 -68.703125 22.046875 -70.722656 28.703125 -71.046875 C 33.953125 -71.046875 38.335938 -70.453125 41.859375 -69.265625 C 45.378906 -68.078125 48.800781 -66.394531 52.125 -64.21875 Z M 46.84375 -53.5625 "/></g></g></g><g fill="#ff0000" fill-opacity="1"><g transform="translate(282.429445, 162.150012)"><g><path d="M 23.046875 -70.65625 L 23.046875 0 L 9.125 0 L 9.125 -70.65625 Z M 23.046875 -70.65625 "/></g></g></g><g fill="#ff0000" fill-opacity="1"><g transform="translate(314.589447, 162.150012)"><g><path d="M 57.3125 -70.65625 L 57.3125 -57.21875 L 23.046875 -57.21875 L 23.046875 -42.140625 L 53.375 -42.140625 L 53.375 -28.703125 L 23.046875 -28.703125 L 23.046875 -13.4375 L 58.65625 -13.4375 L 58.65625 0 L 9.125 0 L 9.125 -70.65625 Z M 57.3125 -70.65625 "/></g></g></g><g fill="#ff0000" fill-opacity="1"><g transform="translate(378.525456, 162.150012)"><g><path d="M 1.921875 -56.359375 C 3.140625 -57.503906 4.160156 -59.050781 4.984375 -61 C 5.816406 -62.957031 6.234375 -64.894531 6.234375 -66.8125 C 6.234375 -67.320312 6.171875 -68.023438 6.046875 -68.921875 L 16.3125 -69.59375 C 16.445312 -68.832031 16.515625 -68.226562 16.515625 -67.78125 C 16.515625 -65.15625 15.742188 -62.429688 14.203125 -59.609375 C 12.671875 -56.796875 10.878906 -54.8125 8.828125 -53.65625 Z M 1.921875 -56.359375 "/></g></g></g><g fill="#ff0000" fill-opacity="1"><g transform="translate(397.437457, 162.150012)"><g><path d="M 20.546875 0.859375 C 17.085938 0.859375 13.851562 0.253906 10.84375 -0.953125 C 7.84375 -2.171875 5.347656 -3.867188 3.359375 -6.046875 L 8.921875 -13.4375 C 12.640625 -9.976562 16.128906 -8.25 19.390625 -8.25 C 21.117188 -8.25 22.507812 -8.519531 23.5625 -9.0625 C 24.625 -9.613281 25.15625 -10.429688 25.15625 -11.515625 C 25.15625 -12.796875 24.546875 -13.769531 23.328125 -14.4375 C 22.109375 -15.113281 20.742188 -15.675781 19.234375 -16.125 C 17.734375 -16.570312 16.726562 -16.859375 16.21875 -16.984375 C 12.570312 -18.140625 9.851562 -19.851562 8.0625 -22.125 C 6.269531 -24.394531 5.375 -27.003906 5.375 -29.953125 C 5.375 -32.191406 5.960938 -34.382812 7.140625 -36.53125 C 8.328125 -38.675781 10.171875 -40.4375 12.671875 -41.8125 C 15.171875 -43.1875 18.273438 -43.875 21.984375 -43.875 C 25.441406 -43.875 28.382812 -43.519531 30.8125 -42.8125 C 33.25 -42.113281 35.585938 -40.960938 37.828125 -39.359375 L 32.734375 -31.484375 C 31.453125 -32.515625 30.023438 -33.363281 28.453125 -34.03125 C 26.890625 -34.707031 25.46875 -35.046875 24.1875 -35.046875 C 22.65625 -35.046875 21.410156 -34.722656 20.453125 -34.078125 C 19.492188 -33.441406 19.015625 -32.675781 19.015625 -31.78125 C 18.941406 -30.4375 19.5 -29.425781 20.6875 -28.75 C 21.875 -28.082031 23.710938 -27.394531 26.203125 -26.6875 C 26.585938 -26.5625 26.988281 -26.429688 27.40625 -26.296875 C 27.820312 -26.171875 28.253906 -26.046875 28.703125 -25.921875 C 35.296875 -23.742188 38.59375 -19.773438 38.59375 -14.015625 C 38.59375 -11.328125 37.921875 -8.863281 36.578125 -6.625 C 35.234375 -4.382812 33.203125 -2.578125 30.484375 -1.203125 C 27.765625 0.171875 24.453125 0.859375 20.546875 0.859375 Z M 20.546875 0.859375 "/></g></g><g transform="translate(440.349455, 162.150012)"><g/></g><g transform="translate(471.549453, 162.150012)"><g><path d="M 46.84375 -53.5625 C 40.695312 -56.957031 35.351562 -58.65625 30.8125 -58.65625 C 27.738281 -58.65625 25.351562 -58.046875 23.65625 -56.828125 C 21.96875 -55.617188 21.125 -53.796875 21.125 -51.359375 C 21.125 -49.117188 22.351562 -47.148438 24.8125 -45.453125 C 27.28125 -43.753906 30.5625 -42.140625 34.65625 -40.609375 C 37.976562 -39.390625 40.820312 -37.992188 43.1875 -36.421875 C 45.5625 -34.859375 47.53125 -32.703125 49.09375 -29.953125 C 50.664062 -27.203125 51.453125 -23.710938 51.453125 -19.484375 C 51.453125 -15.835938 50.507812 -12.460938 48.625 -9.359375 C 46.738281 -6.253906 43.96875 -3.789062 40.3125 -1.96875 C 36.664062 -0.144531 32.316406 0.765625 27.265625 0.765625 C 23.035156 0.765625 18.84375 0.144531 14.6875 -1.09375 C 10.53125 -2.34375 6.660156 -4.25 3.078125 -6.8125 L 9.21875 -17.65625 C 11.644531 -15.863281 14.425781 -14.390625 17.5625 -13.234375 C 20.695312 -12.085938 23.515625 -11.515625 26.015625 -11.515625 C 28.960938 -11.515625 31.519531 -12.140625 33.6875 -13.390625 C 35.863281 -14.640625 36.953125 -16.671875 36.953125 -19.484375 C 36.953125 -23.128906 33.53125 -26.296875 26.6875 -28.984375 C 22.65625 -30.585938 19.296875 -32.125 16.609375 -33.59375 C 13.921875 -35.070312 11.597656 -37.1875 9.640625 -39.9375 C 7.691406 -42.6875 6.71875 -46.140625 6.71875 -50.296875 C 6.71875 -56.378906 8.71875 -61.273438 12.71875 -64.984375 C 16.71875 -68.703125 22.046875 -70.722656 28.703125 -71.046875 C 33.953125 -71.046875 38.335938 -70.453125 41.859375 -69.265625 C 45.378906 -68.078125 48.800781 -66.394531 52.125 -64.21875 Z M 46.84375 -53.5625 "/></g></g></g><g fill="#ff0000" fill-opacity="1"><g transform="translate(527.517473, 162.150012)"><g><path d="M 35.90625 -44.0625 C 39.8125 -44.0625 43.296875 -43.132812 46.359375 -41.28125 C 49.429688 -39.425781 51.847656 -36.769531 53.609375 -33.3125 C 55.367188 -29.851562 56.25 -25.789062 56.25 -21.125 C 56.25 -16.507812 55.273438 -12.519531 53.328125 -9.15625 C 51.378906 -5.800781 48.660156 -3.242188 45.171875 -1.484375 C 41.679688 0.273438 37.695312 1.15625 33.21875 1.15625 C 30.78125 1.15625 28.394531 0.722656 26.0625 -0.140625 C 23.726562 -1.003906 21.789062 -2.238281 20.25 -3.84375 L 20.25 20.15625 L 6.90625 20.15625 L 6.90625 -42.90625 L 18.4375 -42.90625 L 19.578125 -37.921875 C 24.703125 -42.015625 30.144531 -44.0625 35.90625 -44.0625 Z M 30.53125 -9.40625 C 33.851562 -9.40625 36.695312 -10.492188 39.0625 -12.671875 C 41.4375 -14.847656 42.625 -17.597656 42.625 -20.921875 C 42.625 -24.378906 41.550781 -27.210938 39.40625 -29.421875 C 37.257812 -31.628906 34.617188 -32.734375 31.484375 -32.734375 C 28.859375 -32.734375 26.632812 -32.203125 24.8125 -31.140625 C 22.988281 -30.085938 21.503906 -28.507812 20.359375 -26.40625 L 20.359375 -16.125 C 21.054688 -14.082031 22.316406 -12.453125 24.140625 -11.234375 C 25.960938 -10.015625 28.09375 -9.40625 30.53125 -9.40625 Z M 30.53125 -9.40625 "/></g></g></g><g fill="#ff0000" fill-opacity="1"><g transform="translate(587.421477, 162.150012)"><g><path d="M 52.03125 -41.953125 L 52.03125 0 L 38.59375 0 L 38.59375 -5.1875 C 34.5625 -0.957031 29.890625 1.15625 24.578125 1.15625 C 18.367188 1.15625 13.328125 -0.695312 9.453125 -4.40625 C 5.578125 -8.125 3.640625 -13.628906 3.640625 -20.921875 C 3.640625 -25.535156 4.582031 -29.582031 6.46875 -33.0625 C 8.363281 -36.550781 10.878906 -39.253906 14.015625 -41.171875 C 17.148438 -43.097656 20.507812 -44.0625 24.09375 -44.0625 C 27.800781 -44.0625 30.742188 -43.5 32.921875 -42.375 C 35.097656 -41.257812 37.019531 -39.675781 38.6875 -37.625 L 39.546875 -41.953125 Z M 28.421875 -9.796875 C 33.085938 -9.796875 36.476562 -11.90625 38.59375 -16.125 L 38.59375 -26.40625 C 37.820312 -28.445312 36.492188 -30.078125 34.609375 -31.296875 C 32.722656 -32.515625 30.5 -33.125 27.9375 -33.125 C 24.988281 -33.125 22.472656 -32.035156 20.390625 -29.859375 C 18.316406 -27.679688 17.28125 -24.925781 17.28125 -21.59375 C 17.28125 -19.425781 17.789062 -17.425781 18.8125 -15.59375 C 19.84375 -13.769531 21.203125 -12.347656 22.890625 -11.328125 C 24.585938 -10.304688 26.429688 -9.796875 28.421875 -9.796875 Z M 28.421875 -9.796875 "/></g></g></g><g fill="#ff0000" fill-opacity="1"><g transform="translate(646.365459, 162.150012)"><g><path d="M 42.53125 -3.75 C 40.675781 -2.269531 38.351562 -1.082031 35.5625 -0.1875 C 32.78125 0.707031 30.046875 1.15625 27.359375 1.15625 C 20.066406 1.15625 14.289062 -0.8125 10.03125 -4.75 C 5.769531 -8.6875 3.640625 -14.113281 3.640625 -21.03125 C 3.640625 -25.507812 4.679688 -29.425781 6.765625 -32.78125 C 8.847656 -36.144531 11.582031 -38.707031 14.96875 -40.46875 C 18.363281 -42.226562 22.015625 -43.109375 25.921875 -43.109375 C 32.898438 -43.109375 38.5625 -41.25 42.90625 -37.53125 L 36.390625 -28.890625 C 33.628906 -31.066406 30.554688 -32.15625 27.171875 -32.15625 C 24.347656 -32.15625 21.960938 -31.097656 20.015625 -28.984375 C 18.066406 -26.878906 17.09375 -24.226562 17.09375 -21.03125 C 17.09375 -17.820312 18.144531 -15.144531 20.25 -13 C 22.363281 -10.863281 25.117188 -9.796875 28.515625 -9.796875 C 31.453125 -9.796875 33.882812 -10.59375 35.8125 -12.1875 Z M 42.53125 -3.75 "/></g></g></g><g fill="#ff0000" fill-opacity="1"><g transform="translate(692.349465, 162.150012)"><g><path d="M 27.84375 -10.265625 C 30.53125 -10.265625 33.3125 -11.195312 36.1875 -13.0625 L 42.140625 -3.078125 C 39.835938 -1.796875 37.40625 -0.769531 34.84375 0 C 32.289062 0.769531 29.859375 1.15625 27.546875 1.15625 C 22.554688 1.15625 18.253906 0.210938 14.640625 -1.671875 C 11.023438 -3.566406 8.285156 -6.222656 6.421875 -9.640625 C 4.566406 -13.066406 3.640625 -16.988281 3.640625 -21.40625 C 3.640625 -25.5 4.710938 -29.273438 6.859375 -32.734375 C 9.003906 -36.191406 11.929688 -38.925781 15.640625 -40.9375 C 19.359375 -42.957031 23.425781 -43.96875 27.84375 -43.96875 C 33.851562 -43.96875 38.796875 -42.207031 42.671875 -38.6875 C 46.546875 -35.164062 49.054688 -30.140625 50.203125 -23.609375 L 19.484375 -13.828125 C 21.535156 -11.453125 24.320312 -10.265625 27.84375 -10.265625 Z M 26.78125 -33.5 C 23.769531 -33.5 21.367188 -32.472656 19.578125 -30.421875 C 17.785156 -28.378906 16.890625 -25.628906 16.890625 -22.171875 L 16.890625 -21.3125 L 35.328125 -27.546875 C 33.984375 -31.515625 31.132812 -33.5 26.78125 -33.5 Z M 26.78125 -33.5 "/></g></g></g><g fill="#00ffff" fill-opacity="1"><g transform="translate(64.557423, 162.150012)"><g><path d="M 29.28125 -14.875 C 29.28125 -8.863281 28.078125 -3.664062 25.671875 0.71875 C 23.273438 5.101562 19.898438 8.476562 15.546875 10.84375 C 11.203125 13.21875 6.179688 14.5 0.484375 14.6875 L 0.484375 1.15625 C 10.335938 0.644531 15.265625 -4.796875 15.265625 -15.171875 L 15.265625 -70.65625 L 29.28125 -70.65625 Z M 29.28125 -14.875 "/></g></g></g><g fill="#00ffff" fill-opacity="1"><g transform="translate(102.95743, 162.150012)"><g><path d="M 57.3125 -70.65625 L 57.3125 -57.21875 L 23.046875 -57.21875 L 23.046875 -42.140625 L 53.375 -42.140625 L 53.375 -28.703125 L 23.046875 -28.703125 L 23.046875 -13.4375 L 58.65625 -13.4375 L 58.65625 0 L 9.125 0 L 9.125 -70.65625 Z M 57.3125 -70.65625 "/></g></g></g><g fill="#00ffff" fill-opacity="1"><g transform="translate(166.893439, 162.150012)"><g><path d="M 46.84375 -53.5625 C 40.695312 -56.957031 35.351562 -58.65625 30.8125 -58.65625 C 27.738281 -58.65625 25.351562 -58.046875 23.65625 -56.828125 C 21.96875 -55.617188 21.125 -53.796875 21.125 -51.359375 C 21.125 -49.117188 22.351562 -47.148438 24.8125 -45.453125 C 27.28125 -43.753906 30.5625 -42.140625 34.65625 -40.609375 C 37.976562 -39.390625 40.820312 -37.992188 43.1875 -36.421875 C 45.5625 -34.859375 47.53125 -32.703125 49.09375 -29.953125 C 50.664062 -27.203125 51.453125 -23.710938 51.453125 -19.484375 C 51.453125 -15.835938 50.507812 -12.460938 48.625 -9.359375 C 46.738281 -6.253906 43.96875 -3.789062 40.3125 -1.96875 C 36.664062 -0.144531 32.316406 0.765625 27.265625 0.765625 C 23.035156 0.765625 18.84375 0.144531 14.6875 -1.09375 C 10.53125 -2.34375 6.660156 -4.25 3.078125 -6.8125 L 9.21875 -17.65625 C 11.644531 -15.863281 14.425781 -14.390625 17.5625 -13.234375 C 20.695312 -12.085938 23.515625 -11.515625 26.015625 -11.515625 C 28.960938 -11.515625 31.519531 -12.140625 33.6875 -13.390625 C 35.863281 -14.640625 36.953125 -16.671875 36.953125 -19.484375 C 36.953125 -23.128906 33.53125 -26.296875 26.6875 -28.984375 C 22.65625 -30.585938 19.296875 -32.125 16.609375 -33.59375 C 13.921875 -35.070312 11.597656 -37.1875 9.640625 -39.9375 C 7.691406 -42.6875 6.71875 -46.140625 6.71875 -50.296875 C 6.71875 -56.378906 8.71875 -61.273438 12.71875 -64.984375 C 16.71875 -68.703125 22.046875 -70.722656 28.703125 -71.046875 C 33.953125 -71.046875 38.335938 -70.453125 41.859375 -69.265625 C 45.378906 -68.078125 48.800781 -66.394531 52.125 -64.21875 Z M 46.84375 -53.5625 "/></g></g></g><g fill="#00ffff" fill-opacity="1"><g transform="translate(222.861442, 162.150012)"><g><path d="M 46.84375 -53.5625 C 40.695312 -56.957031 35.351562 -58.65625 30.8125 -58.65625 C 27.738281 -58.65625 25.351562 -58.046875 23.65625 -56.828125 C 21.96875 -55.617188 21.125 -53.796875 21.125 -51.359375 C 21.125 -49.117188 22.351562 -47.148438 24.8125 -45.453125 C 27.28125 -43.753906 30.5625 -42.140625 34.65625 -40.609375 C 37.976562 -39.390625 40.820312 -37.992188 43.1875 -36.421875 C 45.5625 -34.859375 47.53125 -32.703125 49.09375 -29.953125 C 50.664062 -27.203125 51.453125 -23.710938 51.453125 -19.484375 C 51.453125 -15.835938 50.507812 -12.460938 48.625 -9.359375 C 46.738281 -6.253906 43.96875 -3.789062 40.3125 -1.96875 C 36.664062 -0.144531 32.316406 0.765625 27.265625 0.765625 C 23.035156 0.765625 18.84375 0.144531 14.6875 -1.09375 C 10.53125 -2.34375 6.660156 -4.25 3.078125 -6.8125 L 9.21875 -17.65625 C 11.644531 -15.863281 14.425781 -14.390625 17.5625 -13.234375 C 20.695312 -12.085938 23.515625 -11.515625 26.015625 -11.515625 C 28.960938 -11.515625 31.519531 -12.140625 33.6875 -13.390625 C 35.863281 -14.640625 36.953125 -16.671875 36.953125 -19.484375 C 36.953125 -23.128906 33.53125 -26.296875 26.6875 -28.984375 C 22.65625 -30.585938 19.296875 -32.125 16.609375 -33.59375 C 13.921875 -35.070312 11.597656 -37.1875 9.640625 -39.9375 C 7.691406 -42.6875 6.71875 -46.140625 6.71875 -50.296875 C 6.71875 -56.378906 8.71875 -61.273438 12.71875 -64.984375 C 16.71875 -68.703125 22.046875 -70.722656 28.703125 -71.046875 C 33.953125 -71.046875 38.335938 -70.453125 41.859375 -69.265625 C 45.378906 -68.078125 48.800781 -66.394531 52.125 -64.21875 Z M 46.84375 -53.5625 "/></g></g></g><g fill="#00ffff" fill-opacity="1"><g transform="translate(278.829445, 162.150012)"><g><path d="M 23.046875 -70.65625 L 23.046875 0 L 9.125 0 L 9.125 -70.65625 Z M 23.046875 -70.65625 "/></g></g></g><g fill="#00ffff" fill-opacity="1"><g transform="translate(310.989447, 162.150012)"><g><path d="M 57.3125 -70.65625 L 57.3125 -57.21875 L 23.046875 -57.21875 L 23.046875 -42.140625 L 53.375 -42.140625 L 53.375 -28.703125 L 23.046875 -28.703125 L 23.046875 -13.4375 L 58.65625 -13.4375 L 58.65625 0 L 9.125 0 L 9.125 -70.65625 Z M 57.3125 -70.65625 "/></g></g></g><g fill="#00ffff" fill-opacity="1"><g transform="translate(374.925456, 162.150012)"><g><path d="M 1.921875 -56.359375 C 3.140625 -57.503906 4.160156 -59.050781 4.984375 -61 C 5.816406 -62.957031 6.234375 -64.894531 6.234375 -66.8125 C 6.234375 -67.320312 6.171875 -68.023438 6.046875 -68.921875 L 16.3125 -69.59375 C 16.445312 -68.832031 16.515625 -68.226562 16.515625 -67.78125 C 16.515625 -65.15625 15.742188 -62.429688 14.203125 -59.609375 C 12.671875 -56.796875 10.878906 -54.8125 8.828125 -53.65625 Z M 1.921875 -56.359375 "/></g></g></g><g fill="#00ffff" fill-opacity="1"><g transform="translate(393.837457, 162.150012)"><g><path d="M 20.546875 0.859375 C 17.085938 0.859375 13.851562 0.253906 10.84375 -0.953125 C 7.84375 -2.171875 5.347656 -3.867188 3.359375 -6.046875 L 8.921875 -13.4375 C 12.640625 -9.976562 16.128906 -8.25 19.390625 -8.25 C 21.117188 -8.25 22.507812 -8.519531 23.5625 -9.0625 C 24.625 -9.613281 25.15625 -10.429688 25.15625 -11.515625 C 25.15625 -12.796875 24.546875 -13.769531 23.328125 -14.4375 C 22.109375 -15.113281 20.742188 -15.675781 19.234375 -16.125 C 17.734375 -16.570312 16.726562 -16.859375 16.21875 -16.984375 C 12.570312 -18.140625 9.851562 -19.851562 8.0625 -22.125 C 6.269531 -24.394531 5.375 -27.003906 5.375 -29.953125 C 5.375 -32.191406 5.960938 -34.382812 7.140625 -36.53125 C 8.328125 -38.675781 10.171875 -40.4375 12.671875 -41.8125 C 15.171875 -43.1875 18.273438 -43.875 21.984375 -43.875 C 25.441406 -43.875 28.382812 -43.519531 30.8125 -42.8125 C 33.25 -42.113281 35.585938 -40.960938 37.828125 -39.359375 L 32.734375 -31.484375 C 31.453125 -32.515625 30.023438 -33.363281 28.453125 -34.03125 C 26.890625 -34.707031 25.46875 -35.046875 24.1875 -35.046875 C 22.65625 -35.046875 21.410156 -34.722656 20.453125 -34.078125 C 19.492188 -33.441406 19.015625 -32.675781 19.015625 -31.78125 C 18.941406 -30.4375 19.5 -29.425781 20.6875 -28.75 C 21.875 -28.082031 23.710938 -27.394531 26.203125 -26.6875 C 26.585938 -26.5625 26.988281 -26.429688 27.40625 -26.296875 C 27.820312 -26.171875 28.253906 -26.046875 28.703125 -25.921875 C 35.296875 -23.742188 38.59375 -19.773438 38.59375 -14.015625 C 38.59375 -11.328125 37.921875 -8.863281 36.578125 -6.625 C 35.234375 -4.382812 33.203125 -2.578125 30.484375 -1.203125 C 27.765625 0.171875 24.453125 0.859375 20.546875 0.859375 Z M 20.546875 0.859375 "/></g></g><g transform="translate(436.749455, 162.150012)"><g/></g><g transform="translate(467.949453, 162.150012)"><g><path d="M 46.84375 -53.5625 C 40.695312 -56.957031 35.351562 -58.65625 30.8125 -58.65625 C 27.738281 -58.65625 25.351562 -58.046875 23.65625 -56.828125 C 21.96875 -55.617188 21.125 -53.796875 21.125 -51.359375 C 21.125 -49.117188 22.351562 -47.148438 24.8125 -45.453125 C 27.28125 -43.753906 30.5625 -42.140625 34.65625 -40.609375 C 37.976562 -39.390625 40.820312 -37.992188 43.1875 -36.421875 C 45.5625 -34.859375 47.53125 -32.703125 49.09375 -29.953125 C 50.664062 -27.203125 51.453125 -23.710938 51.453125 -19.484375 C 51.453125 -15.835938 50.507812 -12.460938 48.625 -9.359375 C 46.738281 -6.253906 43.96875 -3.789062 40.3125 -1.96875 C 36.664062 -0.144531 32.316406 0.765625 27.265625 0.765625 C 23.035156 0.765625 18.84375 0.144531 14.6875 -1.09375 C 10.53125 -2.34375 6.660156 -4.25 3.078125 -6.8125 L 9.21875 -17.65625 C 11.644531 -15.863281 14.425781 -14.390625 17.5625 -13.234375 C 20.695312 -12.085938 23.515625 -11.515625 26.015625 -11.515625 C 28.960938 -11.515625 31.519531 -12.140625 33.6875 -13.390625 C 35.863281 -14.640625 36.953125 -16.671875 36.953125 -19.484375 C 36.953125 -23.128906 33.53125 -26.296875 26.6875 -28.984375 C 22.65625 -30.585938 19.296875 -32.125 16.609375 -33.59375 C 13.921875 -35.070312 11.597656 -37.1875 9.640625 -39.9375 C 7.691406 -42.6875 6.71875 -46.140625 6.71875 -50.296875 C 6.71875 -56.378906 8.71875 -61.273438 12.71875 -64.984375 C 16.71875 -68.703125 22.046875 -70.722656 28.703125 -71.046875 C 33.953125 -71.046875 38.335938 -70.453125 41.859375 -69.265625 C 45.378906 -68.078125 48.800781 -66.394531 52.125 -64.21875 Z M 46.84375 -53.5625 "/></g></g></g><g fill="#00ffff" fill-opacity="1"><g transform="translate(523.917473, 162.150012)"><g><path d="M 35.90625 -44.0625 C 39.8125 -44.0625 43.296875 -43.132812 46.359375 -41.28125 C 49.429688 -39.425781 51.847656 -36.769531 53.609375 -33.3125 C 55.367188 -29.851562 56.25 -25.789062 56.25 -21.125 C 56.25 -16.507812 55.273438 -12.519531 53.328125 -9.15625 C 51.378906 -5.800781 48.660156 -3.242188 45.171875 -1.484375 C 41.679688 0.273438 37.695312 1.15625 33.21875 1.15625 C 30.78125 1.15625 28.394531 0.722656 26.0625 -0.140625 C 23.726562 -1.003906 21.789062 -2.238281 20.25 -3.84375 L 20.25 20.15625 L 6.90625 20.15625 L 6.90625 -42.90625 L 18.4375 -42.90625 L 19.578125 -37.921875 C 24.703125 -42.015625 30.144531 -44.0625 35.90625 -44.0625 Z M 30.53125 -9.40625 C 33.851562 -9.40625 36.695312 -10.492188 39.0625 -12.671875 C 41.4375 -14.847656 42.625 -17.597656 42.625 -20.921875 C 42.625 -24.378906 41.550781 -27.210938 39.40625 -29.421875 C 37.257812 -31.628906 34.617188 -32.734375 31.484375 -32.734375 C 28.859375 -32.734375 26.632812 -32.203125 24.8125 -31.140625 C 22.988281 -30.085938 21.503906 -28.507812 20.359375 -26.40625 L 20.359375 -16.125 C 21.054688 -14.082031 22.316406 -12.453125 24.140625 -11.234375 C 25.960938 -10.015625 28.09375 -9.40625 30.53125 -9.40625 Z M 30.53125 -9.40625 "/></g></g></g><g fill="#00ffff" fill-opacity="1"><g transform="translate(583.821477, 162.150012)"><g><path d="M 52.03125 -41.953125 L 52.03125 0 L 38.59375 0 L 38.59375 -5.1875 C 34.5625 -0.957031 29.890625 1.15625 24.578125 1.15625 C 18.367188 1.15625 13.328125 -0.695312 9.453125 -4.40625 C 5.578125 -8.125 3.640625 -13.628906 3.640625 -20.921875 C 3.640625 -25.535156 4.582031 -29.582031 6.46875 -33.0625 C 8.363281 -36.550781 10.878906 -39.253906 14.015625 -41.171875 C 17.148438 -43.097656 20.507812 -44.0625 24.09375 -44.0625 C 27.800781 -44.0625 30.742188 -43.5 32.921875 -42.375 C 35.097656 -41.257812 37.019531 -39.675781 38.6875 -37.625 L 39.546875 -41.953125 Z M 28.421875 -9.796875 C 33.085938 -9.796875 36.476562 -11.90625 38.59375 -16.125 L 38.59375 -26.40625 C 37.820312 -28.445312 36.492188 -30.078125 34.609375 -31.296875 C 32.722656 -32.515625 30.5 -33.125 27.9375 -33.125 C 24.988281 -33.125 22.472656 -32.035156 20.390625 -29.859375 C 18.316406 -27.679688 17.28125 -24.925781 17.28125 -21.59375 C 17.28125 -19.425781 17.789062 -17.425781 18.8125 -15.59375 C 19.84375 -13.769531 21.203125 -12.347656 22.890625 -11.328125 C 24.585938 -10.304688 26.429688 -9.796875 28.421875 -9.796875 Z M 28.421875 -9.796875 "/></g></g></g><g fill="#00ffff" fill-opacity="1"><g transform="translate(642.765459, 162.150012)"><g><path d="M 42.53125 -3.75 C 40.675781 -2.269531 38.351562 -1.082031 35.5625 -0.1875 C 32.78125 0.707031 30.046875 1.15625 27.359375 1.15625 C 20.066406 1.15625 14.289062 -0.8125 10.03125 -4.75 C 5.769531 -8.6875 3.640625 -14.113281 3.640625 -21.03125 C 3.640625 -25.507812 4.679688 -29.425781 6.765625 -32.78125 C 8.847656 -36.144531 11.582031 -38.707031 14.96875 -40.46875 C 18.363281 -42.226562 22.015625 -43.109375 25.921875 -43.109375 C 32.898438 -43.109375 38.5625 -41.25 42.90625 -37.53125 L 36.390625 -28.890625 C 33.628906 -31.066406 30.554688 -32.15625 27.171875 -32.15625 C 24.347656 -32.15625 21.960938 -31.097656 20.015625 -28.984375 C 18.066406 -26.878906 17.09375 -24.226562 17.09375 -21.03125 C 17.09375 -17.820312 18.144531 -15.144531 20.25 -13 C 22.363281 -10.863281 25.117188 -9.796875 28.515625 -9.796875 C 31.453125 -9.796875 33.882812 -10.59375 35.8125 -12.1875 Z M 42.53125 -3.75 "/></g></g></g><g fill="#00ffff" fill-opacity="1"><g transform="translate(688.749465, 162.150012)"><g><path d="M 27.84375 -10.265625 C 30.53125 -10.265625 33.3125 -11.195312 36.1875 -13.0625 L 42.140625 -3.078125 C 39.835938 -1.796875 37.40625 -0.769531 34.84375 0 C 32.289062 0.769531 29.859375 1.15625 27.546875 1.15625 C 22.554688 1.15625 18.253906 0.210938 14.640625 -1.671875 C 11.023438 -3.566406 8.285156 -6.222656 6.421875 -9.640625 C 4.566406 -13.066406 3.640625 -16.988281 3.640625 -21.40625 C 3.640625 -25.5 4.710938 -29.273438 6.859375 -32.734375 C 9.003906 -36.191406 11.929688 -38.925781 15.640625 -40.9375 C 19.359375 -42.957031 23.425781 -43.96875 27.84375 -43.96875 C 33.851562 -43.96875 38.796875 -42.207031 42.671875 -38.6875 C 46.546875 -35.164062 49.054688 -30.140625 50.203125 -23.609375 L 19.484375 -13.828125 C 21.535156 -11.453125 24.320312 -10.265625 27.84375 -10.265625 Z M 26.78125 -33.5 C 23.769531 -33.5 21.367188 -32.472656 19.578125 -30.421875 C 17.785156 -28.378906 16.890625 -25.628906 16.890625 -22.171875 L 16.890625 -21.3125 L 35.328125 -27.546875 C 33.984375 -31.515625 31.132812 -33.5 26.78125 -33.5 Z M 26.78125 -33.5 "/></g></g></g><g fill="#000000" fill-opacity="1"><g transform="translate(66.357423, 162.150012)"><g><path d="M 29.28125 -14.875 C 29.28125 -8.863281 28.078125 -3.664062 25.671875 0.71875 C 23.273438 5.101562 19.898438 8.476562 15.546875 10.84375 C 11.203125 13.21875 6.179688 14.5 0.484375 14.6875 L 0.484375 1.15625 C 10.335938 0.644531 15.265625 -4.796875 15.265625 -15.171875 L 15.265625 -70.65625 L 29.28125 -70.65625 Z M 29.28125 -14.875 "/></g></g></g><g fill="#000000" fill-opacity="1"><g transform="translate(104.75743, 162.150012)"><g><path d="M 57.3125 -70.65625 L 57.3125 -57.21875 L 23.046875 -57.21875 L 23.046875 -42.140625 L 53.375 -42.140625 L 53.375 -28.703125 L 23.046875 -28.703125 L 23.046875 -13.4375 L 58.65625 -13.4375 L 58.65625 0 L 9.125 0 L 9.125 -70.65625 Z M 57.3125 -70.65625 "/></g></g></g><g fill="#000000" fill-opacity="1"><g transform="translate(168.693438, 162.150012)"><g><path d="M 46.84375 -53.5625 C 40.695312 -56.957031 35.351562 -58.65625 30.8125 -58.65625 C 27.738281 -58.65625 25.351562 -58.046875 23.65625 -56.828125 C 21.96875 -55.617188 21.125 -53.796875 21.125 -51.359375 C 21.125 -49.117188 22.351562 -47.148438 24.8125 -45.453125 C 27.28125 -43.753906 30.5625 -42.140625 34.65625 -40.609375 C 37.976562 -39.390625 40.820312 -37.992188 43.1875 -36.421875 C 45.5625 -34.859375 47.53125 -32.703125 49.09375 -29.953125 C 50.664062 -27.203125 51.453125 -23.710938 51.453125 -19.484375 C 51.453125 -15.835938 50.507812 -12.460938 48.625 -9.359375 C 46.738281 -6.253906 43.96875 -3.789062 40.3125 -1.96875 C 36.664062 -0.144531 32.316406 0.765625 27.265625 0.765625 C 23.035156 0.765625 18.84375 0.144531 14.6875 -1.09375 C 10.53125 -2.34375 6.660156 -4.25 3.078125 -6.8125 L 9.21875 -17.65625 C 11.644531 -15.863281 14.425781 -14.390625 17.5625 -13.234375 C 20.695312 -12.085938 23.515625 -11.515625 26.015625 -11.515625 C 28.960938 -11.515625 31.519531 -12.140625 33.6875 -13.390625 C 35.863281 -14.640625 36.953125 -16.671875 36.953125 -19.484375 C 36.953125 -23.128906 33.53125 -26.296875 26.6875 -28.984375 C 22.65625 -30.585938 19.296875 -32.125 16.609375 -33.59375 C 13.921875 -35.070312 11.597656 -37.1875 9.640625 -39.9375 C 7.691406 -42.6875 6.71875 -46.140625 6.71875 -50.296875 C 6.71875 -56.378906 8.71875 -61.273438 12.71875 -64.984375 C 16.71875 -68.703125 22.046875 -70.722656 28.703125 -71.046875 C 33.953125 -71.046875 38.335938 -70.453125 41.859375 -69.265625 C 45.378906 -68.078125 48.800781 -66.394531 52.125 -64.21875 Z M 46.84375 -53.5625 "/></g></g></g><g fill="#000000" fill-opacity="1"><g transform="translate(224.661442, 162.150012)"><g><path d="M 46.84375 -53.5625 C 40.695312 -56.957031 35.351562 -58.65625 30.8125 -58.65625 C 27.738281 -58.65625 25.351562 -58.046875 23.65625 -56.828125 C 21.96875 -55.617188 21.125 -53.796875 21.125 -51.359375 C 21.125 -49.117188 22.351562 -47.148438 24.8125 -45.453125 C 27.28125 -43.753906 30.5625 -42.140625 34.65625 -40.609375 C 37.976562 -39.390625 40.820312 -37.992188 43.1875 -36.421875 C 45.5625 -34.859375 47.53125 -32.703125 49.09375 -29.953125 C 50.664062 -27.203125 51.453125 -23.710938 51.453125 -19.484375 C 51.453125 -15.835938 50.507812 -12.460938 48.625 -9.359375 C 46.738281 -6.253906 43.96875 -3.789062 40.3125 -1.96875 C 36.664062 -0.144531 32.316406 0.765625 27.265625 0.765625 C 23.035156 0.765625 18.84375 0.144531 14.6875 -1.09375 C 10.53125 -2.34375 6.660156 -4.25 3.078125 -6.8125 L 9.21875 -17.65625 C 11.644531 -15.863281 14.425781 -14.390625 17.5625 -13.234375 C 20.695312 -12.085938 23.515625 -11.515625 26.015625 -11.515625 C 28.960938 -11.515625 31.519531 -12.140625 33.6875 -13.390625 C 35.863281 -14.640625 36.953125 -16.671875 36.953125 -19.484375 C 36.953125 -23.128906 33.53125 -26.296875 26.6875 -28.984375 C 22.65625 -30.585938 19.296875 -32.125 16.609375 -33.59375 C 13.921875 -35.070312 11.597656 -37.1875 9.640625 -39.9375 C 7.691406 -42.6875 6.71875 -46.140625 6.71875 -50.296875 C 6.71875 -56.378906 8.71875 -61.273438 12.71875 -64.984375 C 16.71875 -68.703125 22.046875 -70.722656 28.703125 -71.046875 C 33.953125 -71.046875 38.335938 -70.453125 41.859375 -69.265625 C 45.378906 -68.078125 48.800781 -66.394531 52.125 -64.21875 Z M 46.84375 -53.5625 "/></g></g></g><g fill="#000000" fill-opacity="1"><g transform="translate(280.629445, 162.150012)"><g><path d="M 23.046875 -70.65625 L 23.046875 0 L 9.125 0 L 9.125 -70.65625 Z M 23.046875 -70.65625 "/></g></g></g><g fill="#000000" fill-opacity="1"><g transform="translate(312.789447, 162.150012)"><g><path d="M 57.3125 -70.65625 L 57.3125 -57.21875 L 23.046875 -57.21875 L 23.046875 -42.140625 L 53.375 -42.140625 L 53.375 -28.703125 L 23.046875 -28.703125 L 23.046875 -13.4375 L 58.65625 -13.4375 L 58.65625 0 L 9.125 0 L 9.125 -70.65625 Z M 57.3125 -70.65625 "/></g></g></g><g fill="#000000" fill-opacity="1"><g transform="translate(376.725456, 162.150012)"><g><path d="M 1.921875 -56.359375 C 3.140625 -57.503906 4.160156 -59.050781 4.984375 -61 C 5.816406 -62.957031 6.234375 -64.894531 6.234375 -66.8125 C 6.234375 -67.320312 6.171875 -68.023438 6.046875 -68.921875 L 16.3125 -69.59375 C 16.445312 -68.832031 16.515625 -68.226562 16.515625 -67.78125 C 16.515625 -65.15625 15.742188 -62.429688 14.203125 -59.609375 C 12.671875 -56.796875 10.878906 -54.8125 8.828125 -53.65625 Z M 1.921875 -56.359375 "/></g></g></g><g fill="#000000" fill-opacity="1"><g transform="translate(395.637457, 162.150012)"><g><path d="M 20.546875 0.859375 C 17.085938 0.859375 13.851562 0.253906 10.84375 -0.953125 C 7.84375 -2.171875 5.347656 -3.867188 3.359375 -6.046875 L 8.921875 -13.4375 C 12.640625 -9.976562 16.128906 -8.25 19.390625 -8.25 C 21.117188 -8.25 22.507812 -8.519531 23.5625 -9.0625 C 24.625 -9.613281 25.15625 -10.429688 25.15625 -11.515625 C 25.15625 -12.796875 24.546875 -13.769531 23.328125 -14.4375 C 22.109375 -15.113281 20.742188 -15.675781 19.234375 -16.125 C 17.734375 -16.570312 16.726562 -16.859375 16.21875 -16.984375 C 12.570312 -18.140625 9.851562 -19.851562 8.0625 -22.125 C 6.269531 -24.394531 5.375 -27.003906 5.375 -29.953125 C 5.375 -32.191406 5.960938 -34.382812 7.140625 -36.53125 C 8.328125 -38.675781 10.171875 -40.4375 12.671875 -41.8125 C 15.171875 -43.1875 18.273438 -43.875 21.984375 -43.875 C 25.441406 -43.875 28.382812 -43.519531 30.8125 -42.8125 C 33.25 -42.113281 35.585938 -40.960938 37.828125 -39.359375 L 32.734375 -31.484375 C 31.453125 -32.515625 30.023438 -33.363281 28.453125 -34.03125 C 26.890625 -34.707031 25.46875 -35.046875 24.1875 -35.046875 C 22.65625 -35.046875 21.410156 -34.722656 20.453125 -34.078125 C 19.492188 -33.441406 19.015625 -32.675781 19.015625 -31.78125 C 18.941406 -30.4375 19.5 -29.425781 20.6875 -28.75 C 21.875 -28.082031 23.710938 -27.394531 26.203125 -26.6875 C 26.585938 -26.5625 26.988281 -26.429688 27.40625 -26.296875 C 27.820312 -26.171875 28.253906 -26.046875 28.703125 -25.921875 C 35.296875 -23.742188 38.59375 -19.773438 38.59375 -14.015625 C 38.59375 -11.328125 37.921875 -8.863281 36.578125 -6.625 C 35.234375 -4.382812 33.203125 -2.578125 30.484375 -1.203125 C 27.765625 0.171875 24.453125 0.859375 20.546875 0.859375 Z M 20.546875 0.859375 "/></g></g><g transform="translate(438.549455, 162.150012)"><g/></g><g transform="translate(469.749453, 162.150012)"><g><path d="M 46.84375 -53.5625 C 40.695312 -56.957031 35.351562 -58.65625 30.8125 -58.65625 C 27.738281 -58.65625 25.351562 -58.046875 23.65625 -56.828125 C 21.96875 -55.617188 21.125 -53.796875 21.125 -51.359375 C 21.125 -49.117188 22.351562 -47.148438 24.8125 -45.453125 C 27.28125 -43.753906 30.5625 -42.140625 34.65625 -40.609375 C 37.976562 -39.390625 40.820312 -37.992188 43.1875 -36.421875 C 45.5625 -34.859375 47.53125 -32.703125 49.09375 -29.953125 C 50.664062 -27.203125 51.453125 -23.710938 51.453125 -19.484375 C 51.453125 -15.835938 50.507812 -12.460938 48.625 -9.359375 C 46.738281 -6.253906 43.96875 -3.789062 40.3125 -1.96875 C 36.664062 -0.144531 32.316406 0.765625 27.265625 0.765625 C 23.035156 0.765625 18.84375 0.144531 14.6875 -1.09375 C 10.53125 -2.34375 6.660156 -4.25 3.078125 -6.8125 L 9.21875 -17.65625 C 11.644531 -15.863281 14.425781 -14.390625 17.5625 -13.234375 C 20.695312 -12.085938 23.515625 -11.515625 26.015625 -11.515625 C 28.960938 -11.515625 31.519531 -12.140625 33.6875 -13.390625 C 35.863281 -14.640625 36.953125 -16.671875 36.953125 -19.484375 C 36.953125 -23.128906 33.53125 -26.296875 26.6875 -28.984375 C 22.65625 -30.585938 19.296875 -32.125 16.609375 -33.59375 C 13.921875 -35.070312 11.597656 -37.1875 9.640625 -39.9375 C 7.691406 -42.6875 6.71875 -46.140625 6.71875 -50.296875 C 6.71875 -56.378906 8.71875 -61.273438 12.71875 -64.984375 C 16.71875 -68.703125 22.046875 -70.722656 28.703125 -71.046875 C 33.953125 -71.046875 38.335938 -70.453125 41.859375 -69.265625 C 45.378906 -68.078125 48.800781 -66.394531 52.125 -64.21875 Z M 46.84375 -53.5625 "/></g></g></g><g fill="#000000" fill-opacity="1"><g transform="translate(525.717473, 162.150012)"><g><path d="M 35.90625 -44.0625 C 39.8125 -44.0625 43.296875 -43.132812 46.359375 -41.28125 C 49.429688 -39.425781 51.847656 -36.769531 53.609375 -33.3125 C 55.367188 -29.851562 56.25 -25.789062 56.25 -21.125 C 56.25 -16.507812 55.273438 -12.519531 53.328125 -9.15625 C 51.378906 -5.800781 48.660156 -3.242188 45.171875 -1.484375 C 41.679688 0.273438 37.695312 1.15625 33.21875 1.15625 C 30.78125 1.15625 28.394531 0.722656 26.0625 -0.140625 C 23.726562 -1.003906 21.789062 -2.238281 20.25 -3.84375 L 20.25 20.15625 L 6.90625 20.15625 L 6.90625 -42.90625 L 18.4375 -42.90625 L 19.578125 -37.921875 C 24.703125 -42.015625 30.144531 -44.0625 35.90625 -44.0625 Z M 30.53125 -9.40625 C 33.851562 -9.40625 36.695312 -10.492188 39.0625 -12.671875 C 41.4375 -14.847656 42.625 -17.597656 42.625 -20.921875 C 42.625 -24.378906 41.550781 -27.210938 39.40625 -29.421875 C 37.257812 -31.628906 34.617188 -32.734375 31.484375 -32.734375 C 28.859375 -32.734375 26.632812 -32.203125 24.8125 -31.140625 C 22.988281 -30.085938 21.503906 -28.507812 20.359375 -26.40625 L 20.359375 -16.125 C 21.054688 -14.082031 22.316406 -12.453125 24.140625 -11.234375 C 25.960938 -10.015625 28.09375 -9.40625 30.53125 -9.40625 Z M 30.53125 -9.40625 "/></g></g></g><g fill="#000000" fill-opacity="1"><g transform="translate(585.621477, 162.150012)"><g><path d="M 52.03125 -41.953125 L 52.03125 0 L 38.59375 0 L 38.59375 -5.1875 C 34.5625 -0.957031 29.890625 1.15625 24.578125 1.15625 C 18.367188 1.15625 13.328125 -0.695312 9.453125 -4.40625 C 5.578125 -8.125 3.640625 -13.628906 3.640625 -20.921875 C 3.640625 -25.535156 4.582031 -29.582031 6.46875 -33.0625 C 8.363281 -36.550781 10.878906 -39.253906 14.015625 -41.171875 C 17.148438 -43.097656 20.507812 -44.0625 24.09375 -44.0625 C 27.800781 -44.0625 30.742188 -43.5 32.921875 -42.375 C 35.097656 -41.257812 37.019531 -39.675781 38.6875 -37.625 L 39.546875 -41.953125 Z M 28.421875 -9.796875 C 33.085938 -9.796875 36.476562 -11.90625 38.59375 -16.125 L 38.59375 -26.40625 C 37.820312 -28.445312 36.492188 -30.078125 34.609375 -31.296875 C 32.722656 -32.515625 30.5 -33.125 27.9375 -33.125 C 24.988281 -33.125 22.472656 -32.035156 20.390625 -29.859375 C 18.316406 -27.679688 17.28125 -24.925781 17.28125 -21.59375 C 17.28125 -19.425781 17.789062 -17.425781 18.8125 -15.59375 C 19.84375 -13.769531 21.203125 -12.347656 22.890625 -11.328125 C 24.585938 -10.304688 26.429688 -9.796875 28.421875 -9.796875 Z M 28.421875 -9.796875 "/></g></g></g><g fill="#000000" fill-opacity="1"><g transform="translate(644.565459, 162.150012)"><g><path d="M 42.53125 -3.75 C 40.675781 -2.269531 38.351562 -1.082031 35.5625 -0.1875 C 32.78125 0.707031 30.046875 1.15625 27.359375 1.15625 C 20.066406 1.15625 14.289062 -0.8125 10.03125 -4.75 C 5.769531 -8.6875 3.640625 -14.113281 3.640625 -21.03125 C 3.640625 -25.507812 4.679688 -29.425781 6.765625 -32.78125 C 8.847656 -36.144531 11.582031 -38.707031 14.96875 -40.46875 C 18.363281 -42.226562 22.015625 -43.109375 25.921875 -43.109375 C 32.898438 -43.109375 38.5625 -41.25 42.90625 -37.53125 L 36.390625 -28.890625 C 33.628906 -31.066406 30.554688 -32.15625 27.171875 -32.15625 C 24.347656 -32.15625 21.960938 -31.097656 20.015625 -28.984375 C 18.066406 -26.878906 17.09375 -24.226562 17.09375 -21.03125 C 17.09375 -17.820312 18.144531 -15.144531 20.25 -13 C 22.363281 -10.863281 25.117188 -9.796875 28.515625 -9.796875 C 31.453125 -9.796875 33.882812 -10.59375 35.8125 -12.1875 Z M 42.53125 -3.75 "/></g></g></g><g fill="#000000" fill-opacity="1"><g transform="translate(690.549465, 162.150012)"><g><path d="M 27.84375 -10.265625 C 30.53125 -10.265625 33.3125 -11.195312 36.1875 -13.0625 L 42.140625 -3.078125 C 39.835938 -1.796875 37.40625 -0.769531 34.84375 0 C 32.289062 0.769531 29.859375 1.15625 27.546875 1.15625 C 22.554688 1.15625 18.253906 0.210938 14.640625 -1.671875 C 11.023438 -3.566406 8.285156 -6.222656 6.421875 -9.640625 C 4.566406 -13.066406 3.640625 -16.988281 3.640625 -21.40625 C 3.640625 -25.5 4.710938 -29.273438 6.859375 -32.734375 C 9.003906 -36.191406 11.929688 -38.925781 15.640625 -40.9375 C 19.359375 -42.957031 23.425781 -43.96875 27.84375 -43.96875 C 33.851562 -43.96875 38.796875 -42.207031 42.671875 -38.6875 C 46.546875 -35.164062 49.054688 -30.140625 50.203125 -23.609375 L 19.484375 -13.828125 C 21.535156 -11.453125 24.320312 -10.265625 27.84375 -10.265625 Z M 26.78125 -33.5 C 23.769531 -33.5 21.367188 -32.472656 19.578125 -30.421875 C 17.785156 -28.378906 16.890625 -25.628906 16.890625 -22.171875 L 16.890625 -21.3125 L 35.328125 -27.546875 C 33.984375 -31.515625 31.132812 -33.5 26.78125 -33.5 Z M 26.78125 -33.5 "/></g></g></g></svg>